# xmcd
#
# Track frame offsets:
#	150
#	16319
#	32380
#	46972
#	61144
#	76435
#	90874
#	108103
#	123858
#	139288
#	157967
#	171853
#	189057
#	217123
#
# Disc length: 3430 seconds
#
# Revision: 2
# Processed by: cddbd v1.5.2PL0 Copyright (c) Steve Scherf et al.
# Submitted via: audiograbber 1.83.01
#
DISCID=a30d640e
DTITLE=Jimi Blue - Mission Blue
DYEAR=1900
DGENRE=
TTITLE0=Im Lovin
TTITLE1=party in the city
TTITLE2=all alone
TTITLE3=crazy boy
TTITLE4=hey jimi
TTITLE5=school out
TTITLE6=scream now
TTITLE7=electric fantasy
TTITLE8=who that girl
TTITLE9=before you go
TTITLE10=down
TTITLE11=like this
TTITLE12=family song
TTITLE13=video
EXTD=
EXTT0=
EXTT1=
EXTT2=
EXTT3=
EXTT4=
EXTT5=
EXTT6=
EXTT7=
EXTT8=
EXTT9=
EXTT10=
EXTT11=
EXTT12=
EXTT13=
PLAYORDER=
